<?xml version="1.0" encoding="utf-8"?>
<svg x="0pt" y="0pt" width="576pt" height="512pt" viewBox="0 0 576 512" xmlns="http://www.w3.org/2000/svg" xmlns:xlink="http://www.w3.org/1999/xlink">
  <g id="1">
    <title>Layer 1</title>
    <clipPath id="3">
      <use xlink:href="#2"/>
      <path id="2" d="M0,-2.41318e-05 C0,-2.41318e-05,576,-2.41318e-05,576,-2.41318e-05 C576,-2.41318e-05,576,512,576,512 C576,512,0,512,0,512 C0,512,0,-2.41318e-05,0,-2.41318e-05 z"/>
    </clipPath>
    <g id="4" style="clip-path:url(#3);">
      <title>Clipping Group</title>
      <defs>
        <title>Shape 1</title>
        <g id="5">
          <defs>
            <path id="6" d="M384,160 C366.3,160,352,145.7,352,128 C352,110.3,366.3,96,384,96 C384,96,544,96,544,96 C561.7,96,576,110.3,576,128 C576,128,576,288,576,288 C576,305.7,561.7,320,544,320 C526.3,320,512,305.7,512,288 C512,288,512,205.3,512,205.3 C512,205.3,342.6,374.6,342.6,374.6 C330.1,387.1,309.9,387.1,297.4,374.6 C297.4,374.6,191.1,269.3,191.1,269.3 C191.1,269.3,54.63,406.6,54.63,406.6 C42.13,419.1,21.87,419.1,9.372,406.6 C-3.124,394.1,-3.124,373.9,9.372,361.4 C9.372,361.4,169.4,201.4,169.4,201.4 C181.9,188.9,202.1,188.9,214.6,201.4 C214.6,201.4,320,306.7,320,306.7 C320,306.7,466.7,159.1,466.7,159.1 C466.7,159.1,384,160,384,160 z"/>
          </defs>
          <use xlink:href="#6" style="fill:#65c18c;fill-opacity:1;fill-rule:evenodd;opacity:1;stroke:none;"/>
        </g>
      </defs>
      <use xlink:href="#5"/>
    </g>
    <clipPath id="8">
      <use xlink:href="#7"/>
      <path id="7" d="M0,-2.41318e-05 C0,-2.41318e-05,576,-2.41318e-05,576,-2.41318e-05 C576,-2.41318e-05,576,512,576,512 C576,512,0,512,0,512 C0,512,0,-2.41318e-05,0,-2.41318e-05 z"/>
    </clipPath>
    <g id="9" style="clip-path:url(#8);"/>
  </g>
</svg>
